<?xml version="1.0" encoding="utf-8"?>
<svg id="master-artboard" xmlns="http://www.w3.org/2000/svg" viewBox="0 0 500 500" width="500px" height="500px"><g transform="matrix(1.913053981906782, 0, 0, 1.913053981906782, -443.0621207089131, 56.16329843747195)"><g transform="matrix(0.5493108630180359, 0, 0, 0.5493108630180359, 3.3058433532714844, -21.85979652404785)"><g transform="matrix(1, 0, 0, 1, 0, 0)">
			<path class="st5" d="M616.3,323c0,0,0-9,0-33.7c0-30.7-29.6-50.7-29.6-107.2c0-42.6,30.6-76.8,77.4-76.8s75.6,36,75.6,73.2&#10;&#9;&#9;&#9;&#9;c0,12.8,14.3,34.9,20.3,45.9c3.8,7-1.7,12.3-10.1,12.3c-8.4,0-10.8,1.8-10.8,11.4c0,9.6,0,15.6,0,22.2c0,6.6-3.6,21-20.4,21&#10;&#9;&#9;&#9;&#9;c-16.8,0-23.4,0-23.4,0v51.8C642,343.1,616.3,323,616.3,323z" style="fill: rgb(57, 187, 157);"/>
			<path class="st2" d="M616.3,323c0,0,0-9,0-33.7c0-30.7-29.6-50.7-29.6-107.2c0-42.6,30.6-76.8,77.4-76.8s75.6,36,75.6,73.2&#10;&#9;&#9;&#9;&#9;c0,12.8,14.3,34.9,20.3,45.9c3.8,7-1.7,12.3-10.1,12.3c-8.4,0-10.8,1.8-10.8,11.4c0,9.6,0,15.6,0,22.2c0,6.6-3.6,21-20.4,21&#10;&#9;&#9;&#9;&#9;c-16.8,0-23.4,0-23.4,0v51.8" style="fill: none; stroke: rgb(0, 0, 0); stroke-width: 6; stroke-linecap: round; stroke-linejoin: round; stroke-miterlimit: 10;"/>
			<path class="st3" d="M739.8,178.5c0-22.7-10.8-44.9-29.7-58.8c23.2,32.4,13,53,15.1,69.6c2.2,17.5,15.8,59.9-9.1,79.7&#10;&#9;&#9;&#9;&#9;c-22.1,17.5-64-18.8-85.3,2.5c48.3,22.2,38.3,54.4,29.7,68.5c9.9,1.9,21.5,3.2,34.9,3.2v-51.8c0,0,6.6,0,23.4,0&#10;&#9;&#9;&#9;&#9;c16.8,0,20.4-14.4,20.4-21c0-6.6,0-12.6,0-22.2c0-9.6,2.4-11.4,10.8-11.4c8.4,0,13.9-5.3,10.1-12.3&#10;&#9;&#9;&#9;&#9;C754.2,213.4,739.8,191.3,739.8,178.5z" style="opacity: 0.1;"/>
		</g><path class="st6" d="M632.4,161.6c0.1-1.2,0.1-2.4,0.1-3.6c0-1.2,0-2.4-0.1-3.6l-6.9-4.7c-0.3-1.2-0.6-2.3-0.9-3.4l3.6-7.5&#10;&#9;&#9;&#9;c-1-2.2-2.2-4.2-3.6-6.2l-8.3-0.6c-0.8-0.9-1.6-1.7-2.5-2.5l-0.6-8.3c-1.9-1.3-4-2.5-6.2-3.6l-7.5,3.6c-1.1-0.4-2.2-0.7-3.4-0.9&#10;&#9;&#9;&#9;l-4.7-6.9c-1.2-0.1-2.4-0.1-3.6-0.1c-1.2,0-2.4,0-3.6,0.1l-4.7,6.9c-1.2,0.3-2.3,0.6-3.4,0.9l-7.5-3.6c-2.2,1-4.2,2.2-6.2,3.6&#10;&#9;&#9;&#9;l-0.6,8.3c-0.9,0.8-1.7,1.6-2.5,2.5l-8.3,0.6c-1.3,1.9-2.5,4-3.6,6.2l3.6,7.5c-0.4,1.1-0.7,2.2-0.9,3.4l-6.9,4.7&#10;&#9;&#9;&#9;c-0.1,1.2-0.1,2.4-0.1,3.6c0,1.2,0,2.4,0.1,3.6l6.9,4.7c0.3,1.2,0.6,2.3,0.9,3.4l-3.6,7.5c1,2.2,2.2,4.2,3.6,6.2l8.3,0.6&#10;&#9;&#9;&#9;c0.8,0.9,1.6,1.7,2.5,2.5l0.6,8.3c1.9,1.3,4,2.5,6.2,3.6l7.5-3.6c1.1,0.4,2.2,0.7,3.4,0.9l4.7,6.9c1.2,0.1,2.4,0.1,3.6,0.1&#10;&#9;&#9;&#9;c1.2,0,2.4,0,3.6-0.1l4.7-6.9c1.2-0.3,2.3-0.6,3.4-0.9l7.5,3.6c2.2-1,4.2-2.2,6.2-3.6l0.6-8.3c0.9-0.8,1.7-1.6,2.5-2.5l8.3-0.6&#10;&#9;&#9;&#9;c1.3-1.9,2.5-4,3.6-6.2l-3.6-7.5c0.4-1.1,0.7-2.2,0.9-3.4L632.4,161.6z M588,185.5c-15.1,0-27.4-12.3-27.4-27.4&#10;&#9;&#9;&#9;c0-15.1,12.3-27.4,27.4-27.4c15.1,0,27.4,12.3,27.4,27.4C615.4,173.2,603.1,185.5,588,185.5z" style="fill: rgb(253, 185, 19);" transform="matrix(1, 0, 0, 1, 0, 0)"/><path class="st7" d="M716.4,194.3c0.1-1.2,0.1-2.4,0.1-3.6c0-1.2,0-2.4-0.1-3.6l-6.9-4.7c-0.3-1.2-0.6-2.3-0.9-3.4l3.6-7.5&#10;&#9;&#9;&#9;c-1-2.2-2.2-4.2-3.6-6.2l-8.3-0.6c-0.8-0.9-1.6-1.7-2.5-2.5l-0.6-8.3c-1.9-1.3-4-2.5-6.2-3.6l-7.5,3.6c-1.1-0.4-2.2-0.7-3.4-0.9&#10;&#9;&#9;&#9;l-4.7-6.9c-1.2-0.1-2.4-0.1-3.6-0.1c-1.2,0-2.4,0-3.6,0.1l-4.7,6.9c-1.2,0.3-2.3,0.6-3.4,0.9l-7.5-3.6c-2.2,1-4.2,2.2-6.2,3.6&#10;&#9;&#9;&#9;l-0.6,8.3c-0.9,0.8-1.7,1.6-2.5,2.5l-8.3,0.6c-1.3,1.9-2.5,4-3.6,6.2l3.6,7.5c-0.4,1.1-0.7,2.2-0.9,3.4l-6.9,4.7&#10;&#9;&#9;&#9;c-0.1,1.2-0.1,2.4-0.1,3.6c0,1.2,0,2.4,0.1,3.6l6.9,4.7c0.3,1.2,0.6,2.3,0.9,3.4l-3.6,7.5c1,2.2,2.2,4.2,3.6,6.2l8.3,0.6&#10;&#9;&#9;&#9;c0.8,0.9,1.6,1.7,2.5,2.5l0.6,8.3c1.9,1.3,4,2.5,6.2,3.6l7.5-3.6c1.1,0.4,2.2,0.7,3.4,0.9l4.7,6.9c1.2,0.1,2.4,0.1,3.6,0.1&#10;&#9;&#9;&#9;c1.2,0,2.4,0,3.6-0.1l4.7-6.9c1.2-0.3,2.3-0.6,3.4-0.9l7.5,3.6c2.2-1,4.2-2.2,6.2-3.6l0.6-8.3c0.9-0.8,1.7-1.6,2.5-2.5l8.3-0.6&#10;&#9;&#9;&#9;c1.3-1.9,2.5-4,3.6-6.2l-3.6-7.5c0.4-1.1,0.7-2.2,0.9-3.4L716.4,194.3z M672.1,218.2c-15.1,0-27.4-12.3-27.4-27.4&#10;&#9;&#9;&#9;c0-15.1,12.3-27.4,27.4-27.4c15.1,0,27.4,12.3,27.4,27.4C699.5,205.9,687.2,218.2,672.1,218.2z" style="fill: rgb(255, 221, 0);" transform="matrix(1, 0, 0, 1, 0, 0)"/><path class="st2" d="M632.4,161.6c0.1-1.2,0.1-2.4,0.1-3.6c0-1.2,0-2.4-0.1-3.6l-6.9-4.7c-0.3-1.2-0.6-2.3-0.9-3.4l3.6-7.5&#10;&#9;&#9;&#9;c-1-2.2-2.2-4.2-3.6-6.2l-8.3-0.6c-0.8-0.9-1.6-1.7-2.5-2.5l-0.6-8.3c-1.9-1.3-4-2.5-6.2-3.6l-7.5,3.6c-1.1-0.4-2.2-0.7-3.4-0.9&#10;&#9;&#9;&#9;l-4.7-6.9c-1.2-0.1-2.4-0.1-3.6-0.1c-1.2,0-2.4,0-3.6,0.1l-4.7,6.9c-1.2,0.3-2.3,0.6-3.4,0.9l-7.5-3.6c-2.2,1-4.2,2.2-6.2,3.6&#10;&#9;&#9;&#9;l-0.6,8.3c-0.9,0.8-1.7,1.6-2.5,2.5l-8.3,0.6c-1.3,1.9-2.5,4-3.6,6.2l3.6,7.5c-0.4,1.1-0.7,2.2-0.9,3.4l-6.9,4.7&#10;&#9;&#9;&#9;c-0.1,1.2-0.1,2.4-0.1,3.6c0,1.2,0,2.4,0.1,3.6l6.9,4.7c0.3,1.2,0.6,2.3,0.9,3.4l-3.6,7.5c1,2.2,2.2,4.2,3.6,6.2l8.3,0.6&#10;&#9;&#9;&#9;c0.8,0.9,1.6,1.7,2.5,2.5l0.6,8.3c1.9,1.3,4,2.5,6.2,3.6l7.5-3.6c1.1,0.4,2.2,0.7,3.4,0.9l4.7,6.9c1.2,0.1,2.4,0.1,3.6,0.1&#10;&#9;&#9;&#9;c1.2,0,2.4,0,3.6-0.1l4.7-6.9c1.2-0.3,2.3-0.6,3.4-0.9l7.5,3.6c2.2-1,4.2-2.2,6.2-3.6l0.6-8.3c0.9-0.8,1.7-1.6,2.5-2.5l8.3-0.6&#10;&#9;&#9;&#9;c1.3-1.9,2.5-4,3.6-6.2l-3.6-7.5c0.4-1.1,0.7-2.2,0.9-3.4L632.4,161.6z M588,185.5c-15.1,0-27.4-12.3-27.4-27.4&#10;&#9;&#9;&#9;c0-15.1,12.3-27.4,27.4-27.4c15.1,0,27.4,12.3,27.4,27.4C615.4,173.2,603.1,185.5,588,185.5z" style="fill: none; stroke: rgb(0, 0, 0); stroke-width: 6; stroke-linecap: round; stroke-linejoin: round; stroke-miterlimit: 10;" transform="matrix(1, 0, 0, 1, 0, 0)"/><path class="st2" d="M716.4,194.3c0.1-1.2,0.1-2.4,0.1-3.6c0-1.2,0-2.4-0.1-3.6l-6.9-4.7c-0.3-1.2-0.6-2.3-0.9-3.4l3.6-7.5&#10;&#9;&#9;&#9;c-1-2.2-2.2-4.2-3.6-6.2l-8.3-0.6c-0.8-0.9-1.6-1.7-2.5-2.5l-0.6-8.3c-1.9-1.3-4-2.5-6.2-3.6l-7.5,3.6c-1.1-0.4-2.2-0.7-3.4-0.9&#10;&#9;&#9;&#9;l-4.7-6.9c-1.2-0.1-2.4-0.1-3.6-0.1c-1.2,0-2.4,0-3.6,0.1l-4.7,6.9c-1.2,0.3-2.3,0.6-3.4,0.9l-7.5-3.6c-2.2,1-4.2,2.2-6.2,3.6&#10;&#9;&#9;&#9;l-0.6,8.3c-0.9,0.8-1.7,1.6-2.5,2.5l-8.3,0.6c-1.3,1.9-2.5,4-3.6,6.2l3.6,7.5c-0.4,1.1-0.7,2.2-0.9,3.4l-6.9,4.7&#10;&#9;&#9;&#9;c-0.1,1.2-0.1,2.4-0.1,3.6c0,1.2,0,2.4,0.1,3.6l6.9,4.7c0.3,1.2,0.6,2.3,0.9,3.4l-3.6,7.5c1,2.2,2.2,4.2,3.6,6.2l8.3,0.6&#10;&#9;&#9;&#9;c0.8,0.9,1.6,1.7,2.5,2.5l0.6,8.3c1.9,1.3,4,2.5,6.2,3.6l7.5-3.6c1.1,0.4,2.2,0.7,3.4,0.9l4.7,6.9c1.2,0.1,2.4,0.1,3.6,0.1&#10;&#9;&#9;&#9;c1.2,0,2.4,0,3.6-0.1l4.7-6.9c1.2-0.3,2.3-0.6,3.4-0.9l7.5,3.6c2.2-1,4.2-2.2,6.2-3.6l0.6-8.3c0.9-0.8,1.7-1.6,2.5-2.5l8.3-0.6&#10;&#9;&#9;&#9;c1.3-1.9,2.5-4,3.6-6.2l-3.6-7.5c0.4-1.1,0.7-2.2,0.9-3.4L716.4,194.3z M672.1,218.2c-15.1,0-27.4-12.3-27.4-27.4&#10;&#9;&#9;&#9;c0-15.1,12.3-27.4,27.4-27.4c15.1,0,27.4,12.3,27.4,27.4C699.5,205.9,687.2,218.2,672.1,218.2z" style="fill: none; stroke: rgb(0, 0, 0); stroke-width: 6; stroke-linecap: round; stroke-linejoin: round; stroke-miterlimit: 10;" transform="matrix(1, 0, 0, 1, 0, 0)"/></g></g></svg>