<svg width="800" height="600" xmlns="http://www.w3.org/2000/svg">
 <!-- Created with Method Draw - http://github.com/duopixel/Method-Draw/ -->

 <g>
  <title>background</title>
  <rect fill="none" id="canvas_background" height="602" width="802" y="-1" x="-1"/>
  <g display="none" overflow="visible" y="0" x="0" height="100%" width="100%" id="canvasGrid">
   <rect fill="url(#gridpattern)" stroke-width="0" y="0" x="0" height="100%" width="100%"/>
  </g>
 </g>
 <g>
  <title>Layer 1</title>
  <ellipse transform="rotate(55 193.28640747070318,316.0185546875) " stroke="#000" ry="77.48718" rx="76.5424" id="svg_1" cy="290.5611" cx="226.4213" stroke-width="10" fill="#17757d"/>
  <rect stroke="#000000" id="svg_19" height="5.22388" width="36.70111" y="159.15789" x="424.3289" stroke-width="3.5" fill="#000000"/>
  <rect stroke="#000000" transform="rotate(55 343.04925537109375,270.84387207031256) " id="svg_33" height="10.05265" width="112.07925" y="265.81756" x="287.00964" stroke-width="1.5" fill="#17757d"/>
  <rect stroke="#000000" transform="rotate(-104.3464126586914 307.8397827148437,213.94400024414062) " id="svg_38" height="8" width="34.16095" y="209.94401" x="290.75932" stroke-width="1.5" fill="#000000"/>
  <rect stroke="#000000" id="svg_39" height="7" width="25.31788" y="360.04049" x="387.3756" stroke-width="1.5" fill="#000000"/>
  <line stroke="#f7b500" stroke-linecap="null" stroke-linejoin="null" id="svg_43" y2="400.39261" x2="236.30681" y1="257.048" x1="233.57954" stroke-width="3" fill="none"/>
  <ellipse transform="rotate(55 219.16358947753903,286.6325988769532) " stroke="#f7b500" ry="9.83393" rx="10.42563" id="svg_96" cy="298.10003" cx="261.77895" stroke-width="1.5" fill="#f7b500"/>
  <line stroke="#f7b500" transform="rotate(28 234.24699401855472,329.3717346191406) " stroke-linecap="null" stroke-linejoin="null" id="svg_125" y2="401.86907" x2="235.61063" y1="256.87441" x1="232.88336" stroke-width="3" fill="none"/>
  <line transform="rotate(-30 234.94317626953114,328.0624084472656) " stroke="#f7b500" stroke-linecap="null" stroke-linejoin="null" id="svg_126" y2="399.07682" x2="236.30681" y1="257.048" x1="233.57954" stroke-width="3" fill="none"/>
  <line transform="rotate(-59 232.75021362304688,327.6238098144531) " stroke="#f7b500" stroke-linecap="null" stroke-linejoin="null" id="svg_127" y2="398.63822" x2="234.11383" y1="256.6094" x1="231.38656" stroke-width="3" fill="none"/>
  <line stroke="#f7b500" transform="rotate(-119 233.45150756835932,328.8416137695312) " opacity="0.99" stroke-linecap="null" stroke-linejoin="null" id="svg_128" y2="400.55858" x2="234.81515" y1="257.12464" x1="232.08788" stroke-width="3" fill="none"/>
  <line transform="rotate(-89 232.75021362304688,328.0624084472656) " stroke="#f7b500" stroke-linecap="null" stroke-linejoin="null" id="svg_129" y2="399.07682" x2="234.11383" y1="257.048" x1="231.38656" stroke-width="3" fill="none"/>
  <ellipse transform="rotate(55 497.51391601562494,317.42700195312506) " stroke="#000" ry="77.48718" rx="76.5424" id="svg_141" cy="291.96957" cx="530.64881" stroke-width="10" fill="#17757d"/>
  <line stroke="#f7b500" stroke-linecap="null" stroke-linejoin="null" id="svg_142" y2="401.09684" x2="540.53432" y1="257.75223" x1="537.80705" stroke-width="3" fill="none"/>
  <ellipse transform="rotate(55 523.3911132812501,287.33682250976557) " stroke="#f7b500" ry="9.83393" rx="10.42563" id="svg_143" cy="298.80426" cx="566.00646" stroke-width="1.5" fill="#f7b500"/>
  <line stroke="#f7b500" transform="rotate(28 538.4744873046874,330.07595825195307) " stroke-linecap="null" stroke-linejoin="null" id="svg_144" y2="402.5733" x2="539.83814" y1="257.57864" x1="537.11087" stroke-width="3" fill="none"/>
  <line transform="rotate(-30 539.1706542968749,328.76663208007807) " stroke="#f7b500" stroke-linecap="null" stroke-linejoin="null" id="svg_145" y2="399.78105" x2="540.53432" y1="257.75223" x1="537.80705" stroke-width="3" fill="none"/>
  <line transform="rotate(-59 536.9777221679689,328.3280334472657) " stroke="#f7b500" stroke-linecap="null" stroke-linejoin="null" id="svg_146" y2="399.34245" x2="538.34134" y1="257.31363" x1="535.61407" stroke-width="3" fill="none"/>
  <line stroke="#f7b500" transform="rotate(-119 537.6790161132814,329.5458374023438) " opacity="0.99" stroke-linecap="null" stroke-linejoin="null" id="svg_147" y2="401.26281" x2="539.04266" y1="257.82887" x1="536.31539" stroke-width="3" fill="none"/>
  <line transform="rotate(-89 536.9777221679689,328.7666320800781) " stroke="#f7b500" stroke-linecap="null" stroke-linejoin="null" id="svg_148" y2="399.78105" x2="538.34134" y1="257.75223" x1="535.61407" stroke-width="3" fill="none"/>
  <rect stroke="#000000" id="svg_164" height="10.02679" width="47.47416" y="194.32987" x="270.21559" stroke-width="3.5" fill="#000000"/>
  <rect stroke="#000000" transform="rotate(-25 498.33718872070295,245.49688720703114) " id="svg_165" height="187.19557" width="9.17591" y="151.8991" x="493.74925" stroke-width="1.5" fill="#17757d"/>
  <rect stroke="#000000" id="svg_166" height="7" width="168.15643" y="212.78072" x="307.56433" fill="#17757d"/>
  <rect stroke="#000000" transform="rotate(38 272.8063659667968,273.02465820312506) " id="svg_167" height="138.01669" width="10" y="204.01631" x="267.80637" stroke-width="1.5" fill="#17757d"/>
  <rect stroke="#000000" transform="matrix(1.3628587127428782,1.1793333337707237,-1.1435742432092915,1.4054747373873668,300.14223016069013,-680.1418769332552) " id="svg_168" height="86.05607" width="6" y="308.02082" x="386.56652" fill="#17757d"/>
  <rect stroke="#000000" transform="rotate(-104.3464126586914 386.0093688964843,347.0435485839844) " id="svg_169" height="8" width="34.16095" y="343.04356" x="368.92889" stroke-width="1.5" fill="#000000"/>
  <ellipse transform="rotate(55 522.6868896484375,287.3368225097656) " stroke="#f7b500" ry="9.83393" rx="10.42563" id="svg_171" cy="298.80426" cx="565.30222" stroke-width="1.5" fill="#f7b500"/>
  <path d="m464.17087,214.43839c0,0 0.53476,0 1.06952,0c0.53476,0 0.53476,0 1.06952,0c0.53476,0 0.37082,0.24535 1.06952,0.53476c0.49405,0.20465 0.53476,0 1.06952,0c0.53476,0 0.53476,0 0.53476,0c0,0 -0.53476,0 -0.53476,0c-1.06952,0 -1.60428,0 -2.6738,0c-1.60428,0 -2.13904,0 -3.20856,0c0,0 -0.53476,0 -1.06952,0c0,0 -0.53476,0 -0.53476,0c-0.53476,0 0,0 0.53476,0c1.06952,0 2.13904,0 3.20856,0c1.06952,0 2.13904,0 2.6738,0c0,0 0.53476,0.53476 1.06952,0.53476c0.53476,0 0.53476,0 1.06952,0c0,0 0,0.53476 0,0.53476c0,0 0,0 -0.53476,0c-0.53476,0 -2.13904,0 -3.20856,0c-1.06952,0 -2.13904,0 -2.6738,0c-1.06952,0 -1.06952,0 -1.60428,0c0,0 -0.53476,-0.53476 -0.53476,0c0,0.53476 1.06952,0 1.60428,0c1.06952,0 2.13904,0 3.20856,0c0.53476,0 1.06952,0 2.13904,0c0.53476,0 0.69138,0.15663 1.06952,0.53476c0.37814,0.37813 0,0.53476 0,0.53476c-0.53476,0 -1.06952,0 -1.60428,0c-0.53476,0 -1.60428,0 -2.13904,0c-1.06952,0 -1.60428,0 -2.13904,0c-0.53476,0 -1.06952,-0.53476 -1.06952,-0.53476c-0.53476,0 -0.53476,-0.53476 -0.53476,-0.53476c0,0 0,0 0.53476,0c1.06952,0 2.13904,0 3.20856,0c0.53476,0 1.06952,0 1.06952,0c0.53476,0 0.53476,0 0.53476,0c-0.53476,0 -1.06952,0 -2.6738,0c-0.53476,0 -1.06952,0 -1.60428,0c-0.53476,0 -0.53476,0 -1.06952,0l0.53476,0l0,0" id="svg_174" stroke-width="1.5" stroke="#17757d" fill="none"/>
  <path stroke="#17757d" d="m478.07458,213.36887c0,0 0,0 0.53476,0c0.53476,0 1.06952,0 1.06952,0c0.53476,0 0.53476,0 1.06952,0c0,0 0,0 0,0c0,0 0,-0.53476 0,-0.53476c-1.06952,0 -2.6738,-0.53476 -4.27808,-0.53476c-1.06952,0 -3.20856,0 -3.74332,0c-1.06949,0 -1.06949,0 -1.06949,0c1.06949,0.53476 2.13901,0.53476 3.74329,0.53476c2.13904,0 3.20856,0 3.74332,0c0.53476,0 1.06952,0 1.60428,0c0,0 0.53476,0 0.53476,0l-0.53476,0l0,0l0,0" id="svg_175" stroke-width="1.5" fill="none"/>
  <path stroke="#17757d" d="m311.76453,216.57742c0,0 0,0.53476 0,1.06952c0,1.06952 0.20465,1.64499 0,2.13904c-0.2894,0.6987 -0.53476,1.06952 -0.53476,1.60428c0,0 0,0.53476 0,0c0,0 -0.24573,-1.09813 0,-2.13904c0.27472,-1.16377 1.06952,-2.6738 1.60428,-3.20856c0.53476,-0.53476 0.57547,-0.86487 1.06952,-1.06952c0.6987,-0.28941 0.53476,-0.53476 1.06952,-0.53476c0,0 0.53476,0 0.53476,0c0,0 0,0 0,0.53476c0,0 0,1.06952 -0.53476,1.60428c-1.06952,1.06952 -2.59503,1.69684 -3.20856,2.13904c-0.97006,0.69917 -1.06952,0.53476 -1.60428,1.06952l0,0l0,0l0,0" id="svg_176" stroke-width="1.5" fill="none"/>
  <rect stroke="#000000" id="svg_177" height="9.52633" width="120.50031" y="324.76493" x="243.32542" stroke-width="1.5" fill="#17757d"/>
  <ellipse stroke="#f7b500" ry="22.33564" rx="22.42727" id="svg_178" cy="331.2915" cx="377.00158" stroke-width="1.5" fill="#f7b500"/>
  <ellipse transform="rotate(55 219.16357421874994,286.63256835937506) " stroke="#f7b500" ry="9.83393" rx="10.42563" id="svg_179" cy="298.10003" cx="261.77894" stroke-width="1.5" fill="#f7b500"/>
  <path stroke="#17757d" d="m313.18079,231.32022c0,0 0,0 0,-0.9091c0,0 0,0 0,0c0,-0.90909 0,-0.90909 0,-0.90909c-0.90909,-0.9091 -1.17535,-0.26628 -1.81818,-0.9091c-0.64282,-0.64284 0,-0.9091 0,-0.9091c-0.90912,0 -0.90912,0 -0.90912,0c0,0 0,0 0,0c0,0.9091 0.56122,0.9783 0.90912,1.81821c0.492,1.18777 0.90909,0.90909 1.81818,1.81819c0.90912,0.90912 0.90912,0.9091 0.90912,0.9091c0,0 0,0.9091 0,0.9091c0,0 -0.56122,-0.0692 -0.90912,-0.9091c-0.98398,-2.37558 -2.99356,-2.08447 -3.63638,-2.72729c-0.64282,-0.64284 0,-0.9091 0.90909,0c0,0 0,0.90909 0.90912,0.90909l0,0" id="svg_181" stroke-width="1.5" fill="none"/>
  <path transform="rotate(-20 315.063720703125,229.13394165039062) " d="m314.99899,225.2955c0,0 0,0 0,0c0,0 0,0.9091 0,0c0,0 -0.90909,-0.9091 -0.90909,-1.81821c0,0 0,-0.9091 0,-1.81821c0,0 0,0 0,0c0,0 0.90909,-0.90909 0,-0.90909c-0.90909,0 0,0.90909 0,0.90909c0,0.9091 0.28247,1.89117 0.90909,4.54552c0.46704,1.97844 1.35773,4.4351 1.81821,7.27281c0.29123,1.79472 0,3.6364 0,3.6364c0,0 0,0.9091 0,0c0,-0.90909 0,-0.90909 0,-1.81819c0,0 -0.41708,-0.63042 -0.90909,-1.81821c-0.3479,-0.8399 0,-1.81821 -0.90912,-2.72731c0,0 0,-0.9091 0,-0.9091c0,-0.9091 0,-0.9091 0,-0.9091c0,0 -0.70023,-0.93341 -0.90909,-1.81819c-0.46704,-1.97844 -0.90912,-2.72731 -0.90912,-2.72731c0,-0.9091 0,-0.9091 0,-0.9091c0,0.9091 0,0.9091 0,0.9091l0,0.9091l0.90912,0l0,0" id="svg_183" stroke-width="1.5" stroke="#17757d" fill="none"/>
  <path d="m476.55173,215.86203c0,0 0,0 0,0c1.3793,0 1.3793,0 2.06897,0c0.68967,0 0.68967,0 1.3793,0c0.68967,0 1.3793,0.68967 2.06897,0.68967c0.68967,0 1.3793,0.68965 2.75864,0.68965c0,0 0.202,-0.48764 0.68964,0c0.48767,0.48766 0,0.68965 0,0.68965c0,0 -0.68964,0 -1.3793,0c-0.68967,0 -2.08743,-0.5312 -2.75864,-0.68965c-1.50085,-0.35431 -1.3793,-0.68965 -2.06894,-1.37932c0,0 0,0 0,0c-0.68967,-0.68965 -0.68967,-1.3793 -0.68967,-1.3793c0,0 0,0 1.3793,0c0.68967,0 0.47824,0.31642 1.3793,0.68965c0.63718,0.26393 0.68967,0.68965 0.68967,1.37932c0,0 0,0 0,0.68965l0,0l0,0" id="svg_185" stroke="#17757d" fill="none"/>
  <path d="m465.51724,217.24135c0,0 0,0 0.68967,0c0.68964,0 1.3793,0 2.06897,0c0,0 0.68964,0 0.68964,0c0.68967,0 0.68967,0 0.68967,0c0,0.68965 0,0.68965 0,0.68965c0,0 -0.68967,0 -1.3793,0c-0.68967,0 -1.37933,0 -2.06897,0c0,0 -0.68967,-0.68965 -0.68967,-0.68965c-0.68964,0 -0.89163,0.48767 -1.3793,0c-0.48767,-0.48766 0,-0.68965 -0.68967,-0.68965c0,0 0,0 0.68967,0l0,0l0,0" id="svg_186" stroke="#17757d" fill="none"/>
  <path d="m314.16635,229.16643c0,0 0,0 0,0c0,-0.41666 0,-0.83333 0,-1.25c0,-0.41666 0,-0.41666 -0.41666,-0.41666c0,0 0.61926,0.34322 0.83331,1.25c0.09573,0.40552 0.2572,0.86505 0.41666,1.25c0.22552,0.5444 0.83334,1.25 0.83334,1.66666c0,0.41667 0.41666,0.83333 0.41666,0.83333c0,0 0,0 -0.41666,0c0,0 -0.83334,-0.41666 -1.25,-0.83333c-0.41666,-0.41666 -0.41666,-0.83334 -0.83331,-1.25c-0.41669,-0.41667 -0.41669,-0.83333 -0.83334,-1.25c0,0 0.03171,-0.15944 0.41666,0c0.54443,0.22549 0.41669,0.83334 0.83334,1.25c0.41666,0.41667 0.41666,0.41667 0.83331,0.83334c0,0 0,0.41666 0,0.41666c0,0 0,0 0,0c-0.41666,-0.41666 -0.89343,-0.80589 -1.24997,-1.66666c-0.50424,-1.21732 -0.83334,-2.08334 -1.25,-2.5c0,0 0,0 0,0c0,0 0,0.41666 0,0.83333c0,0.83333 0.07211,1.18864 0.41666,1.66667c0.54477,0.75583 0.41666,1.25 0.83334,2.08333c0,0 0,0.41666 0.41666,0.41666c0,0 0,0 0,-0.41666c0,-0.41667 0.41666,-0.41667 0.41666,-1.25c0,-0.41667 0,-0.83333 0,-1.66667c0,-0.41666 0.29462,-0.95537 0,-1.25c-0.29462,-0.29462 -0.41666,-0.41666 -0.41666,-0.83333c0,-0.41666 0,-0.83333 0,-1.25c0,0 0,-0.41666 0.41666,-0.41666c0,0 0,0 0,0c0.41666,0.41666 0.2572,0.86505 0.41666,1.25c0.22552,0.5444 0.25723,0.86504 0.41669,1.24998c0.22549,0.5444 0.67386,0.86507 0.83331,1.25c0.22552,0.54442 0.41669,0.41667 0.41669,0.41667c0,0.41667 0,0 0,-0.41667c0,-0.83333 -0.41669,-1.66666 -0.83334,-2.49998c-0.41666,-0.83334 -0.41666,-1.25 -0.41666,-1.25c0,0 0,-0.41667 0,-0.41667c0,0 0,-0.41667 0,-0.41667c0,0 0.12204,-0.29462 0.41666,0c0.29462,0.29463 0,0.41667 0,0.83334c0,0.41666 0.12204,0.53871 0.41666,0.83333c0.58926,0.58925 0,1.25 0,1.66666c0,0.41667 0.41669,0.83334 0.41669,0.83334c0,0 0,0.41666 0,0.41666c0.41666,0 0.41666,0 0.41666,0c0,-0.41666 0,-0.83333 0,-1.25c0,-0.41666 0.15945,-0.86504 0,-1.24998c-0.22549,-0.5444 -0.5387,-0.5387 -0.83334,-0.83334c-0.29462,-0.29462 -0.41666,-0.41666 -0.41666,-0.83333c0,0 0,0 0,0c0,0 0,0 0,0c-0.41666,0 -0.41666,0 -0.41666,0c0,0.41667 -0.15945,0.86505 0,1.25c0.22549,0.5444 0.41666,0.83333 0.41666,0.83333c0.41666,0.41667 0.41666,0.83333 0.41666,0.83333c0,0 0,0 0,0c0,0.41667 0,0.41667 0,0.41667l0,0l0,0" id="svg_193" stroke-width="1.5" stroke="#17757d" fill="none"/>
  <path d="m314.99966,215.83311c-0.41666,0 -0.41666,0 -0.83331,0.41667c-0.83334,0.83334 -1.86926,1.17654 -2.08334,2.08333c-0.09573,0.4055 0,0.83333 0,0.83333c0,0.41667 0,0.41667 0,0.41667c0,0.41666 0,0.41666 0,0.83333c0,0 0,0 0,0c0.41669,0 0.41669,-0.41667 0.83334,-0.83333c0.41666,-0.41667 1.03094,-0.89557 1.25,-1.25c0.48981,-0.79254 0.83331,-0.41667 1.25,-0.83334c0,0 0.41666,0 0.83331,-0.41666c0,0 0.41669,0 0.41669,0c0.41666,0 0.41666,0 0.41666,0c0,0.41666 -0.16119,1.21567 -1.25,1.66666c-0.38495,0.15944 -0.86505,0.25722 -1.25,0.41667c-0.5444,0.22549 -0.41666,0.41667 -0.41666,0.41667c-0.41666,0 -0.41666,0.41666 -0.41666,0.41666c0,0 0,0 0,0c0.41666,-0.83333 0.83331,-1.24998 1.66666,-2.08333c0.41666,-0.41667 0.83331,-0.83333 0.83331,-0.83333c0.41669,0 0.41669,-0.41667 0.41669,-0.41667c0,0 0,0.41666 -0.83334,1.25c-0.41666,0.41667 -1.25,0.83333 -1.66666,1.25c0,0 -0.41666,0.41667 -0.41666,0.41667c-0.41669,0 -0.41669,0 -0.41669,-0.41667l0,0l0.41669,-0.41667" id="svg_194" stroke-width="1.5" stroke="#17757d" fill="none"/>
  <path d="m313.74969,218.74977c0,0 -0.15945,-0.03171 0,-0.41666c0.22549,-0.5444 0.83331,-0.83334 0.83331,-0.83334c0.41666,0 0.83334,-0.41666 0.83334,-0.41666c0.41666,0 0.41666,0 0.41666,0c0,0 0.41666,0 0.41666,0c-0.41666,0.41666 -0.41666,0.41666 -1.25,1.25c-0.41666,0.41666 -0.5387,0.95537 -0.83331,1.25c-0.29462,0.29462 -0.41666,0.41666 -0.41666,0.41666c0,0.41667 -0.41669,0.41667 -0.41669,0.41667c0.41669,0 0.41669,-0.41667 0.83334,-0.83333c0.83331,-0.83334 1.25,-1.25 1.66666,-1.66667c0,0 0,0 0.41666,0c0,0 -0.12204,0.12206 -0.41666,0.41667c-0.29462,0.29462 -0.83334,0.83333 -1.25,1.25c0,0 -0.41666,0.41666 -0.41666,0.41666l0,0.41667l0,0l0,0" id="svg_195" stroke-width="1.5" stroke="#17757d" fill="none"/>
  <path d="m309.58301,229.5831c0,0.41667 0,0.41667 0,0.41667c0.41669,0.41666 0.41669,0.41666 0.41669,0.41666c0.41666,0.41667 0.41666,0.41667 0.41666,0.41667c0.41666,0 0.41666,0.41667 0.41666,0.41667c0.41669,0.41666 0.41669,0.41666 0.41669,0.41666c0,0 0,0 0,0.41667c0,0 0,0 0.41666,0c0,0 0,0 0,0c0,0.41666 0,0.41666 0.41666,0.83333c0,0 0.12204,-0.29465 0.41669,0c0.29462,0.29463 0,0.41667 0,0.41667l0,0l0,0" id="svg_196" stroke-width="1.5" stroke="#17757d" fill="none"/>
  <path d="m313.74969,220.83311c0,0 0.41666,0 0.41666,0c0.41666,0 0.77194,-0.4888 1.25,-0.83334c0.75583,-0.54475 1.66666,-0.41666 2.5,-0.83333c0,0 0.41666,-0.41667 0.41666,-0.41667c0.41666,0 0.41666,0 0.41666,0c0,0 0,0 0,0c0,0.41667 -0.77194,0.4888 -1.25,0.83334c-0.75583,0.54475 -1.25,0.41666 -1.66666,0.41666c0,0 0,0 0,0.41667c0,0 0,0 0,0.41667c0,0 0.29462,0.12204 0,0.41666c-0.29462,0.29462 -0.41666,0 -0.41666,0c0.41666,0 0.44836,0.15944 0.83331,0c0.5444,-0.22549 0.53873,-0.53871 0.83334,-0.83333c0.29462,-0.29463 0.41666,-0.41667 0.41666,-0.41667c0.41669,-0.41666 0.83334,-0.41666 0.83334,-0.41666c0,0 0.41666,0 0.41666,0c0,0 0,0 0,0c0,0 0,0 0,0c0,0 -0.41666,0.41666 -0.41666,0.41666c-0.41666,0.41667 -0.83334,0.83334 -0.83334,0.83334c-0.41666,0.41666 -0.12204,0.5387 -0.41666,0.83333c-0.29462,0.29462 -0.41666,0 -0.41666,0.41667c0,0 0,0 0,0c0,0 0.12204,-0.12204 0.41666,-0.41667c0.29462,-0.29462 0.41666,-0.41667 0.83334,-0.83333c0,0 0.41666,-0.41667 0.41666,-0.41667c0,-0.41667 0.41666,-0.41667 0.41666,-0.41667c0.41669,-0.41666 0.41669,-0.41666 0.41669,-0.41666c0,0 0,0 0.41666,0c0,0 0,0 0,0c0,0 -0.12204,0.12204 -0.41666,0.41666c-0.29462,0.29463 -0.53873,0.53873 -0.83334,0.83334c-0.29462,0.29462 -0.41666,0.41666 -0.41666,0.83333c0,0.41667 0,0.41667 0,0.41667c0,0 0,0 0,0c0,-0.41667 0.41666,-0.83334 0.41666,-0.83334c0.41666,-0.41666 0.5387,-0.53868 0.83334,-0.83333c0.29462,-0.29463 0,-0.41667 0,-0.41667c0.41666,0 0.41666,-0.41666 0.41666,-0.41666c0,0 0.41666,0 0.41666,0c0,0 0,0 0,0l0,0" id="svg_197" stroke-width="1.5" stroke="#17757d" fill="none"/>
  <path d="m462.9162,218.33311c-0.41666,0 0,0 0,0c0,0 0.41666,0 0.41666,0c0,0 0.41669,0 0.41669,0c0,0 0.41666,0 0.41666,0c0,0 0.41666,0 0.41666,0c0,0 0.41669,0 0.41669,0c0,0 0,0 0,0c0.41666,0 0.41666,0 0.41666,0c0,0 0,0 0,0c0,0 0.41666,0 0.41666,0c0,0 0,0 0,0c0.41666,0 0.41666,0 0.41666,0c0,0 0.41669,0 0.41669,0c0,0 0.41666,0 0.41666,0c0,0 0,0 0.41666,0c0,0 0,0 0.41669,0c0,0 0,0 0.41666,0c0,0 0.41666,0 0.41666,0c0.41669,0 0.41669,0 0.83334,0c0,0 0.41666,0 0.41666,0c0,0 0.41669,0 0.41669,0c0,0 0,0.41666 0,0.41666c-0.41669,0 -0.83334,-0.41666 -1.25,-0.41666c-0.83334,0 -1.25,0 -1.25,0c-0.41669,0 -0.41669,0 -0.41669,0c0,0 0,0 -0.41666,0c0,0 0,0 0,0c0,0 0,0 -0.41666,0c0,0 0,0 0,0c0,0 -0.41669,0 -0.41669,0c0,0 -0.41666,0 -0.41666,0c0,0 0,0 0,0c0,0 0,0 -0.41666,0c0,0 0,0 0,0c0,0 0,0 0,0c-0.41666,0 -0.41666,0 -0.83334,0c0,0 -0.41666,0 -1.25,0c-0.41666,0 -0.83331,0 -0.83331,-0.41667c0,0 0,0 0,0c0,0 0,0 0,0l0,0l0,-0.41667" id="svg_198" stroke-width="1.5" stroke="#17757d" fill="none"/>
  <path d="m480.83286,212.91644c0,0 0,0 0,0.41667c0,0.41667 0.12204,0.95537 0.41666,1.25c0.29462,0.29462 0.41666,0.41667 0.41666,0.41667c0.41669,0 0.41669,0.41666 0.41669,0.41666c0,0 0.60782,0.28894 0.83331,0.83334c0.15945,0.38495 0.25723,0.44838 0.41669,0.83333c0.22549,0.54439 0.41666,0.41666 0.41666,0.41666c0.41666,0 0.41666,0 0.41666,0.41667c0,0 0,0 0,-0.41667c0,0 -0.32092,-0.01114 -0.41666,-0.41666c-0.21405,-0.90677 -0.60782,-1.12225 -0.83334,-1.66667c-0.15945,-0.38493 -0.12204,-0.53871 -0.41666,-0.83333c-0.29462,-0.29463 0,-0.83333 0,-0.83333c0,-0.41667 0,-0.41667 0,-0.41667c0,0 0,-0.41667 0,-0.41667c0.41666,0 0.41666,0 0.41666,0c0.41669,0.41667 0.41669,0.83334 0.41669,0.83334c0.41666,0.41666 0.41666,0.83333 0.41666,1.25c0,0.83333 0,1.25 0,1.25c0.41666,0.83333 0.41666,1.24998 0.41666,1.66666l0.41669,0l0,0l0,0.41667" id="svg_199" stroke-width="1.5" stroke="#17757d" fill="none"/>
  <path d="m474.58286,214.16644c0,-0.41666 0,-0.41666 0,-0.41666c0,-0.41667 0,-0.41667 0.41666,-0.83334c0,0 0.2572,-0.03172 0.41666,-0.41666c0.22552,-0.54442 0.44839,-0.67387 0.83334,-0.83333c0.5444,-0.22549 0.41666,-0.83334 0.41666,-0.83334c0.41669,-0.41666 0.41669,-0.41666 0.41669,-0.41666c0.41666,0 0.41666,0 0.41666,0c0,0 0,-0.41667 0,-0.41667c0,0 0,0 0,0c0,-0.41667 0,-0.41667 0,-0.41667c0,-0.41666 0.41666,-0.41666 0.41666,-0.41666c0,-0.41667 0.12204,-0.12202 0.41669,-0.41667c0.29462,-0.29463 0,-0.41667 0,-0.83333c0,0 0,0 0,0c0,0 0,0 0,0.41666c0,0 0,0.41667 0,0.41667c0,0.41667 0,0.83333 0,0.83333c0,0.41667 -0.41669,0.83334 -0.41669,1.25c0,0 0,0.41667 -0.41666,0.41667l0,0.41667l0,0l0,0.41666" id="svg_200" stroke-width="1.5" stroke="#17757d" fill="none"/>
  <path d="m465.83286,216.24979c0,0 0.41666,0 0.83334,0c0.41666,0 0.83331,0 0.83331,0c0.41669,-0.41667 0.83334,-0.41667 1.25,-0.41667c0.41669,0 0.83334,-0.41667 0.83334,-0.41667c0,0 0,0 0.41666,0c0,0 0,0 0.41669,0c0,0 0,0 0,0c0.41666,0 0.41666,0 0.41666,0c0,0 0,0 0.41666,0c0,0 0,0 0,0c0.41669,0 0.41669,0 0.41669,0c0.41666,0 0.5387,0.29462 0.83331,0c0.29462,-0.29462 0.41669,-0.41666 0.41669,-0.41666c0,0 0.41666,0 0.41666,0c0,0 0,0 0,0c0,-0.41667 -0.41666,-0.41667 -0.41666,-0.41667c-0.41669,0 -0.83334,0 -0.83334,0c-0.41666,0 -0.41666,0 -0.41666,0c-0.41669,0 -0.41669,0 -0.41669,0c0,0 0,0 0,0c-0.41666,0 -0.41666,0 -0.83331,0c0,0 0,0 -0.41669,0c0,0 -0.41666,0 -0.41666,0c-0.41666,0 -0.41666,0 -0.41666,0c-0.41669,0 -0.41669,0 -0.41669,0c0,0 0,0 0,0c0.41669,0 0.41669,0 0.83334,0c0.41666,0 1.25,0 1.25,0l0.41666,0l0,0l0,0" id="svg_201" stroke-width="1.5" stroke="#17757d" fill="none"/>
  <path d="m478.33286,208.74979c0,0 0,0 0,0c0,0.83333 0,0.83333 0,1.66667c0,0.41666 0,0.83333 0,1.25c0,0.41666 -0.41669,0.41666 -0.41669,0.83333c0,0 0,0.41666 0,0.41666c0,0 0,0 0,0c0,-0.41666 0.20261,-0.34322 0.41669,-1.24998c0.09573,-0.40552 0.41666,-0.83334 0.41666,-1.66667c0,0 0.12204,-0.12206 0.41666,-0.41667c0.29462,-0.29462 0,-0.41666 0,-0.83333c0,0 0,0 0,0c0,0 0,0.41667 0,0.83333c0,0.41667 0,0.83334 0,1.25c0,0 0,0.41667 0,0.83334c0,0 -0.12204,0.12204 -0.41666,0.41666c-0.29462,0.29463 0,0.41667 0,0.83333c0,0 0,0 0,0.41667c0,0 0,0.41667 0,0.41667c0,0.41666 0,0.41666 0,0.41666c0.41666,0 0.41666,0 0.41666,0c0,0 0,0 0,0l0,0" id="svg_202" stroke-width="1.5" stroke="#17757d" fill="none"/>
  <path d="m309.16635,216.66644c0,0 0,0.41667 0,0.83333c0,0.41667 -0.15945,0.86505 0,1.25c0.22549,0.5444 0.41666,0.83334 0.41666,1.25c0,0.41667 0.41669,0.41667 0.41669,0.83334c0,0 0,0 0,0.41666c0,0 0,0 0,-0.41666c0,-0.41667 0,-0.41667 0,-0.83334c0,-0.83333 -0.19116,-0.70558 -0.41669,-1.25c-0.15945,-0.38493 0,-0.41666 0,-0.83333c0,-0.41667 0,-0.41667 0.41669,-0.41667c0,0 0,0 0,-0.41666c0,0 0.41666,0 0.41666,0c0,0 0,0 0,0c0,-0.41667 0,-0.41667 0,-0.41667c0,0 0,0 0,0.41667c0,0 0.12204,0.5387 0.41666,0.83333c0.29465,0.29465 0.41669,0.41667 0.83334,0.41667c0,0 0.12204,-0.29462 0.41666,0c0.29462,0.29462 0,0.41666 0,0.41666c0.41669,0 0.41669,0 0.41669,-0.41666c0,0 -0.19116,0.12775 -0.41669,-0.41667c-0.15945,-0.38495 -0.41666,-0.41667 -0.41666,-0.41667c-0.41666,-0.41666 -0.41666,-0.41666 -0.83334,-0.41666c0,0 -0.12204,0.29462 -0.41666,0c-0.29462,-0.29463 0,-0.41667 0,-0.41667c0,0 0,0 -0.41666,0c0,0 0,0 0,-0.41666c0,0 -0.41669,0 -0.41669,-0.41667c0,0 0,-0.41667 0,-0.41667c0,0 0,-0.41666 0,-0.41666c0,0 0,0 0,0c0,-0.41667 0,-0.41667 0,-0.41667c0,0 0.41669,0 0.41669,0c0.41666,0 0.41666,0.41667 0.41666,0.41667c0.41666,0 0.41666,0.41666 0.41666,0.41666c0,0 0.41669,0.41667 0.41669,0.41667c0,0.41667 0.41666,0.41667 0.41666,0.41667c0,0 0,0.41666 0,0.41666c0,0 0,0 0,0c0,0 0.41666,0 0.41666,0c0,0 0,0 0,0c0,0 0,-0.41666 0,-0.41666c0,0 0,-0.41667 0,-0.83334c0,0 0,0 0,-0.41666c0,0 0,0 0,0c0,0 -0.41666,0 -0.41666,0c0,0 0.29462,0.12204 0,0.41666c-0.29462,0.29462 -0.41666,0 -0.41666,0c-0.41669,0 -0.41669,0 -0.41669,0c-0.41666,0 -0.41666,0 -0.41666,0c-0.41666,0 -0.41666,0 -0.41666,0c-0.41669,0 -0.41669,0 -0.41669,0c0,0 0.41669,0 0.41669,0c0,0 0,0 0.41666,0.41667c0,0 0,0 0,0l0,0.41667l0,0" id="svg_203" stroke-width="1.5" stroke="#17757d" fill="none"/>
  <path d="m467.9162,213.74979c0,0 0.41666,0 0.83331,0c0,0 0.41669,0 0.41669,0c0.41666,0 0.41666,0 0.41666,0c0.41666,0 0.41666,0 0.83334,0c0,0 0,0 0,0c0.41666,0 0.41666,0 0.41666,0c0,0 0,0 0,0c0.41666,0 0.41666,0 0.41666,0c0,0 0,0 0,0c0,0 0.41669,0 0.41669,0c0,0 0,0 0,0c0,0 0,0 0.41666,0c0,0 0,0 0,0c0,0 0.41666,0 0.41666,0c0,0 0,0 0.41669,0c0,0 0,0 0,0c0,0 0,0 0,0l0.41666,0l0,0" id="svg_204" stroke-width="1.5" stroke="#17757d" fill="none"/>
  <path d="m308.16809,213.23877c0,0 0,0.28169 0,0.84506c0,0.28169 0,0.84508 0,1.12677c0,0.28168 -0.17392,0.58481 -0.28171,0.84506c-0.15244,0.36804 -0.28168,0.56337 -0.56335,0.84506c0,0 0,0.28169 0,0c0,-0.28169 0.12924,-0.47702 0.28168,-0.84506c0.21558,-0.52051 0.28168,-1.12675 0.28168,-1.12675c0.28171,-0.28169 0.3642,-0.36421 0.56339,-0.56339c0.19919,-0.19919 0.17392,-0.30313 0.28171,-0.56337c0.15244,-0.36804 0.28168,-0.56339 0.56335,-0.84508c0,0 0,0 0,0.28169c0,0.28169 -0.04877,0.80357 -0.28168,1.12675c-0.36829,0.51099 -0.52893,0.86368 -0.84506,1.40845c-0.50977,0.87845 -1.06757,1.99393 -1.40845,2.81689c-0.24103,0.58194 -0.4556,1.14819 -0.56339,1.40845c-0.15244,0.36804 -0.28168,0.28169 -0.28168,0c0,-0.28169 0.04877,-0.52191 0.28168,-0.84506c0.36832,-0.51099 0.61212,-0.8036 0.84506,-1.12677c0.36829,-0.51099 0.84506,-1.12674 1.12677,-1.69012c0.28171,-0.56339 0.76453,-1.46808 1.40845,-2.25352c0.25256,-0.30806 0.56339,-0.56337 0.56339,-0.56337c0.28168,0 0.28168,0 0.28168,0c0,0 -0.28168,0.28169 -0.56339,0.84506c0,0 -0.28168,0.28169 -0.28168,0.56339c0,0.28169 -0.28171,0.56337 -0.28171,0.84506c0,0 -0.28168,0.28169 -0.56335,0.84506c-0.28171,0.56339 -0.19534,0.97432 -0.56339,1.12677c-0.26025,0.1078 -0.28171,0.56337 -0.56339,0.84506c-0.28168,0.28169 -0.41092,0.47702 -0.56339,0.84506c-0.10782,0.26025 -0.28168,0.56339 0,0.56339c0.28168,0 0.12924,-0.19533 0.28171,-0.56339c0.10779,-0.26024 0.28165,-0.84506 0.56335,-1.40845c0.28171,-0.56339 0.66092,-0.76208 1.12677,-1.40845c0.36829,-0.51097 0.59097,-1.35899 1.12677,-1.69012c0.23962,-0.14809 0.36417,-0.08252 0.56335,-0.28169c0.19919,-0.19919 -0.19919,-0.3642 0,-0.56339c0.19919,-0.1992 0.28171,-0.28168 0.56339,-0.28168c0,0 0,0 0,0c0,0 -0.12924,0.19533 -0.28168,0.56337c-0.10779,0.26025 -0.17392,0.58482 -0.28171,0.84508c-0.15244,0.36803 -0.36417,0.3642 -0.56335,0.56337c-0.19919,0.19919 0,0.28169 -0.28171,0.56339c0,0 0,0.28168 -0.28168,0.56337c-0.28171,0.28171 -0.02759,0.79561 -0.56339,1.12675c-0.23959,0.14809 -0.28168,0.28169 -0.56339,0.56339c0,0 -0.28168,0.28169 -0.28168,0.28169c0,0.28169 -0.28171,0.56337 -0.56339,0.84506c0,0 -0.28168,0.28169 -0.28168,0.56339c0,0 -0.28171,0 -0.28171,0c0,0 0,0 0,0c0,0 0,0 0,0c0,-0.28169 -0.19919,-0.3642 0,-0.56339c0.19919,-0.1992 0.4556,-0.30313 0.56339,-0.56337c0.15244,-0.36804 0.4556,-0.58482 0.56339,-0.84508c0.15244,-0.36804 0.3642,-0.36417 0.56339,-0.56337c0.19919,-0.19919 0.28168,-0.56339 0.56335,-0.84508c0.28171,-0.28171 0.4556,-0.58481 0.56339,-0.84506c0.3049,-0.7361 0.3642,-0.64589 0.56339,-0.84506c0.19919,-0.19917 0.28168,0 0.28168,0c0,0 0,-0.28169 0,-0.28169c0,0 0.28171,0 0.28171,-0.28169c0,0 0.28168,0 0.28168,-0.28169c0,0 0.28171,0 0.28171,-0.28169c0,0 0,-0.28168 0.28168,-0.28168c0,0 0,-0.28169 0.28168,-0.28169c0,0 0,0 0,0.28169l0,0" id="svg_205" stroke-opacity="null" stroke-width="1.5" stroke="#000000" fill="none"/>
  <path d="m307.88638,219.71762c0,0 -0.10779,-0.02144 0,-0.28169c0.3049,-0.73608 1.18039,-1.09337 1.69016,-1.97182c0.31616,-0.54478 0.56339,-0.84508 0.56339,-0.84508c0,-0.28168 0.28168,-0.28168 0.28168,-0.28168c0,0 0,0 0,0c0,-0.28169 0,-0.28169 0,-0.28169c0,0 0,0 0.28168,-0.28169c0,0 -0.10782,-0.02144 0,-0.28169c0.15247,-0.36804 0.28171,-0.28168 0.56339,-0.56337c0.28171,-0.28171 0.28171,-0.28169 0.28171,-0.28169c0.28168,-0.28169 0.28168,-0.28169 0.28168,-0.28169c0,0 0,0 0,0c0,0 0.28168,-0.28169 0.28168,-0.28169c0,0 0,0 0,0c0,-0.28168 0.08252,-0.08247 0.28171,-0.28168c0.19919,-0.19919 0,-0.28169 0,-0.28169c0.28168,-0.28169 0.28168,-0.28169 0.28168,-0.28169c0,0 0.28171,-0.28169 0.28171,-0.28169c0,0 0,0 0,0l0,0l0,0" id="svg_206" stroke-opacity="null" stroke-width="1.5" stroke="#000000" fill="none"/>
  <line stroke-linecap="null" stroke-linejoin="null" id="svg_209" y2="219.99982" x2="320.74047" y1="224.69118" x1="316.54295" stroke-opacity="null" stroke-width="1.5" stroke="#000000" fill="none"/>
  <line stroke="#000000" transform="rotate(-81.88048553466797 308.4555969238281,219.07977294921875) " stroke-linecap="null" stroke-linejoin="null" id="svg_210" y2="216.78954" x2="303.95517" y1="221.37002" x1="312.95602" stroke-opacity="null" stroke-width="1.5" fill="none"/>
 </g>
</svg>